<?xml version="1.0" encoding="UTF-8"?>
<svg width="288px" height="192px" viewBox="0 0 288 192" version="1.1" xmlns="http://www.w3.org/2000/svg" xmlns:xlink="http://www.w3.org/1999/xlink">
    <!-- Generator: sketchtool 41.2 (35397) - http://www.bohemiancoding.com/sketch -->
    <title>F1130E91-0270-436D-8AC9-84664E53BB50</title>
    <desc>Created with sketchtool.</desc>
    <defs>
        <linearGradient x1="110.634501%" y1="75.0377674%" x2="-10.0739512%" y2="25.003176%" id="linearGradient-1">
            <stop stop-color="#C0D84E" offset="0%"></stop>
            <stop stop-color="#5CBC6A" offset="100%"></stop>
        </linearGradient>
        <linearGradient x1="50%" y1="100%" x2="50%" y2="0%" id="linearGradient-2">
            <stop stop-color="#C0D84E" offset="0%"></stop>
            <stop stop-color="#5CBC6A" offset="100%"></stop>
        </linearGradient>
        <linearGradient x1="50%" y1="100%" x2="50%" y2="0%" id="linearGradient-3">
            <stop stop-color="#F15B51" offset="0%"></stop>
            <stop stop-color="#F89E2B" offset="100%"></stop>
        </linearGradient>
        <linearGradient x1="0%" y1="50%" x2="100%" y2="50%" id="linearGradient-4">
            <stop stop-color="#F1F2F3" offset="0%"></stop>
            <stop stop-color="#B1BFC3" offset="100%"></stop>
        </linearGradient>
        <linearGradient x1="0%" y1="50%" x2="100%" y2="50%" id="linearGradient-5">
            <stop stop-color="#FFCF30" offset="0%"></stop>
            <stop stop-color="#F89E2B" offset="100%"></stop>
        </linearGradient>
        <linearGradient x1="50%" y1="100%" x2="50%" y2="0%" id="linearGradient-6">
            <stop stop-color="#3C3D46" offset="0%"></stop>
            <stop stop-color="#5D5B6A" offset="100%"></stop>
        </linearGradient>
        <linearGradient x1="50%" y1="100%" x2="50%" y2="0%" id="linearGradient-7">
            <stop stop-color="#F1F2F3" offset="0%"></stop>
            <stop stop-color="#B1BFC3" offset="100%"></stop>
        </linearGradient>
        <linearGradient x1="50%" y1="100%" x2="50%" y2="0%" id="linearGradient-8">
            <stop stop-color="#626EB3" offset="0%"></stop>
            <stop stop-color="#22ABC6" offset="100%"></stop>
        </linearGradient>
        <linearGradient x1="50%" y1="100%" x2="50%" y2="0%" id="linearGradient-9">
            <stop stop-color="#F89E2B" offset="0%"></stop>
            <stop stop-color="#FFCF30" offset="100%"></stop>
        </linearGradient>
        <linearGradient x1="50%" y1="100%" x2="50%" y2="0%" id="linearGradient-10">
            <stop stop-color="#5D5B6A" offset="0%"></stop>
            <stop stop-color="#3C3D46" offset="100%"></stop>
        </linearGradient>
        <linearGradient x1="0.0959349593%" y1="50%" x2="99.904065%" y2="50%" id="linearGradient-11">
            <stop stop-color="#C0D84E" offset="0%"></stop>
            <stop stop-color="#5CBC6A" offset="100%"></stop>
        </linearGradient>
        <linearGradient x1="-6.25%" y1="0%" x2="106.25%" y2="0%" id="linearGradient-12">
            <stop stop-color="#C0D84E" offset="0%"></stop>
            <stop stop-color="#5CBC6A" offset="100%"></stop>
        </linearGradient>
        <linearGradient x1="-5%" y1="0%" x2="105%" y2="0%" id="linearGradient-13">
            <stop stop-color="#F89E2B" offset="0%"></stop>
            <stop stop-color="#F15B51" offset="100%"></stop>
        </linearGradient>
        <linearGradient x1="-8.33333333%" y1="0%" x2="108.333333%" y2="0%" id="linearGradient-14">
            <stop stop-color="#22ABC6" offset="0%"></stop>
            <stop stop-color="#626EB3" offset="100%"></stop>
        </linearGradient>
        <linearGradient x1="-6.25%" y1="0%" x2="106.25%" y2="0%" id="linearGradient-15">
            <stop stop-color="#FFCF30" offset="0%"></stop>
            <stop stop-color="#F89E2B" offset="100%"></stop>
        </linearGradient>
    </defs>
    <g id="Page-1" stroke="none" stroke-width="1" fill="none" fill-rule="evenodd">
        <g id="codequiz_mainpage" transform="translate(-295.000000, -858.000000)">
            <g id="temp_image" transform="translate(295.000000, 858.000000)">
                <g id="Group">
                    <g>
                        <g transform="translate(240.000000, 78.000000)" id="Shape">
                            <path d="M12,0.7 C-4,16.7 -4,42.6 12,58.6 C28,42.6 28,16.7 12,0.7 Z" fill="url(#linearGradient-1)"></path>
                            <path d="M12,58.6 L12,0.7 C-4,16.7 -4,42.6 12,58.6 Z" fill="#5CBC6A"></path>
                        </g>
                        <g transform="translate(252.000000, 100.000000)" id="Shape">
                            <path d="M36,0 C16.1,0 0,16.1 0,36 C19.9,36 36,19.9 36,0 Z" fill="url(#linearGradient-2)"></path>
                            <path d="M0,36 L36,0 C16.1,0 0,16.1 0,36 Z" fill="#5CBC6A"></path>
                        </g>
                        <g transform="translate(208.000000, 136.000000)" id="Rectangle-path">
                            <rect fill="url(#linearGradient-3)" x="0" y="0" width="48" height="28"></rect>
                            <rect fill="#F15B51" x="48" y="0" width="16" height="28"></rect>
                        </g>
                        <g transform="translate(128.000000, 128.000000)">
                            <path d="M64,32 C64,34.2 62.2,36 60,36 C57.8,36 56,34.2 56,32" id="Shape" fill="#B1BFC3"></path>
                            <polygon id="Shape" fill="#B1BFC3" points="64 32 16 32 8 0 56 0"></polygon>
                            <rect id="Rectangle-path" fill="url(#linearGradient-4)" x="0" y="28" width="56" height="8"></rect>
                            <rect id="Rectangle-path" fill="#B1BFC3" x="56" y="32" width="4" height="4"></rect>
                        </g>
                        <rect id="Rectangle-path" fill="#F89E2B" x="264" y="164" width="16" height="12"></rect>
                        <rect id="Rectangle-path" fill="url(#linearGradient-5)" x="120" y="176" width="128" height="16"></rect>
                        <rect id="Rectangle-path" fill="#F89E2B" x="120" y="176" width="128" height="8"></rect>
                        <rect id="Rectangle-path" fill="#FFCF30" x="120" y="164" width="128" height="12"></rect>
                        <g transform="translate(64.000000, 16.000000)">
                            <path d="M8,120 C8,124.4 11.6,128 16,128 L184,128 C188.4,128 192,124.4 192,120 L192,8 C192,3.6 188.4,0 184,0 L16,0 C11.6,0 8,3.6 8,8 L8,120 Z" id="Shape" fill="#B1BFC3"></path>
                            <path d="M176,0 L8,0 C3.6,0 0,3.6 0,8 L0,104 L184,104 L184,8 C184,3.6 180.4,0 176,0 Z" id="Shape" fill="url(#linearGradient-6)"></path>
                            <path d="M0,104 L0,120 C0,124.4 3.6,128 8,128 L176,128 C180.4,128 184,124.4 184,120 L184,104 L0,104 Z" id="Shape" fill="url(#linearGradient-7)"></path>
                            <rect id="Rectangle-path" fill="url(#linearGradient-8)" x="8" y="8" width="168" height="88"></rect>
                        </g>
                        <path d="M216,100 C216,102.2 214.2,104 212,104 L124,104 C121.8,104 120,102.2 120,100 L120,44 C120,41.8 121.8,40 124,40 L212,40 C214.2,40 216,41.8 216,44 L216,100 Z" id="Shape" fill="url(#linearGradient-6)"></path>
                        <rect id="Rectangle-path" fill="#F89E2B" x="248" y="164" width="24" height="28"></rect>
                        <g transform="translate(16.000000, 16.000000)">
                            <path d="M64,88 C28.7,88 0,116.7 0,152 L128,152 C128,116.7 99.3,88 64,88 Z" id="Shape" fill="url(#linearGradient-8)"></path>
                            <path d="M64,88 C59.9,88 55.9,88.4 52,89.1 C81.6,94.7 104,120.7 104,152 L128,152 C128,116.7 99.3,88 64,88 Z" id="Shape" fill="#626EB3"></path>
                            <circle id="Oval" fill="url(#linearGradient-9)" cx="64" cy="48" r="48"></circle>
                            <ellipse id="Oval" fill="#3C3D46" cx="56" cy="88" rx="48" ry="16"></ellipse>
                            <rect id="Rectangle-path" fill="#3C3D46" x="8" y="28" width="96" height="60"></rect>
                            <path d="M104,40 C104,70.9 82.5,96 56,96 C29.5,96 8,70.9 8,40" id="Shape" fill="#3C3D46"></path>
                        </g>
                        <rect id="Rectangle-path" fill="#626EB3" x="120" y="168" width="24" height="24"></rect>
                        <path d="M96,128 L40,128 C26.7,128 16,138.7 16,152 L16,192 L120,192 L120,152 C120,138.7 109.3,128 96,128 Z" id="Shape" fill="#3C3D46"></path>
                        <path d="M80,128 L24,128 C10.7,128 0,138.7 0,152 L0,192 L104,192 L104,152 C104,138.7 93.3,128 80,128 Z" id="Shape" fill="url(#linearGradient-10)"></path>
                        <g transform="translate(192.000000, 32.000000)">
                            <path d="M24,2.1 L24,41.9 C34.1,40.9 42,32.4 42,22 C42,11.6 34.1,3.1 24,2.1 Z" id="Shape" fill="#626EB3"></path>
                            <path d="M2,22 C2,33 11,42 22,42 C22.7,42 23.3,42 24,41.9 L24,8 L7.7,8 C4.2,11.6 2,16.5 2,22 Z" id="Shape" fill="#3C3D46"></path>
                            <circle id="Oval" fill="#FFFFFF" cx="20" cy="20" r="20"></circle>
                            <path d="M20,40 C24.6,40 28.9,38.4 32.3,35.8 C29.4,32.3 25,30 20,30 C15,30 10.7,32.2 7.7,35.8 C11.1,38.4 15.4,40 20,40 Z" id="Shape" fill="url(#linearGradient-11)"></path>
                            <g transform="translate(5.000000, 3.000000)">
                                <circle id="Oval" fill="#3C3D46" cx="15" cy="14" r="13"></circle>
                                <circle id="Oval" fill="#F89E2B" cx="27" cy="17" r="3"></circle>
                                <circle id="Oval" fill="#F89E2B" cx="3" cy="17" r="3"></circle>
                                <circle id="Oval" fill="url(#linearGradient-9)" cx="15" cy="17" r="12"></circle>
                                <path d="M25,15 C25,21.6 19.6,27 13,27 C10.2,27 7.6,26 5.6,24.4 C7.8,27.2 11.2,29 15,29 C21.6,29 27,23.6 27,17 C27,16.3 26.9,15.7 26.8,15 L25,15 Z" id="Shape" fill="#F89E2B"></path>
                                <path d="M11,20 C11,22.2 12.8,24 15,24 C17.2,24 19,22.2 19,20 L11,20 Z" id="Shape" fill="#3C3D46"></path>
                                <circle id="Oval" fill="#3C3D46" cx="11" cy="15" r="1"></circle>
                                <path d="M16.5,16.2 C16.5,17 15.8,17.7 15,17.7 C14.2,17.7 13.5,17 13.5,16.2" id="Shape" fill="#F89E2B"></path>
                                <circle id="Oval" fill="#3C3D46" cx="19" cy="15" r="1"></circle>
                                <path d="M20.8,4.6 L7,5 L4,11 L5,11 C5,8.8 9.5,7 15,7 C20.5,7 25,8.8 25,11 L26,11 L20.8,4.6 Z" id="Shape" fill="#3C3D46"></path>
                                <path d="M13,0 C10.8,0 9,1.8 9,4 C11.2,4 13,2.2 13,0 Z" id="Shape" fill="#3C3D46"></path>
                                <path d="M9.3,0.2 C7.7,1.8 7.7,4.3 9.3,5.9 C10.9,4.3 10.9,1.7 9.3,0.2 Z" id="Shape" fill="#3C3D46"></path>
                                <path d="M4,10 L4,16" id="Shape" stroke="#3C3D46" stroke-width="2" stroke-linecap="round"></path>
                                <path d="M26,10 L26,16" id="Shape" stroke="#3C3D46" stroke-width="2" stroke-linecap="round"></path>
                            </g>
                        </g>
                        <path d="M136,56 L168,56" id="Shape" stroke="url(#linearGradient-12)" stroke-width="4" stroke-linecap="round"></path>
                        <path d="M144,64 L184,64" id="Shape" stroke="url(#linearGradient-13)" stroke-width="4" stroke-linecap="round"></path>
                        <path d="M144,72 L168,72" id="Shape" stroke="url(#linearGradient-14)" stroke-width="4" stroke-linecap="round"></path>
                        <path d="M144,80 L176,80" id="Shape" stroke="url(#linearGradient-15)" stroke-width="4" stroke-linecap="round"></path>
                        <ellipse id="Oval" fill="#3C3D46" cx="76" cy="44" rx="52" ry="44"></ellipse>
                    </g>
                    <polygon id="Shape" fill="#F89E2B" points="164 192 144 192 144 164 160 164 160 176 164 176"></polygon>
                </g>
            </g>
        </g>
    </g>
</svg>